<?xml version="1.0" encoding="UTF-8" standalone="no"?>
<svg xmlns:dc="http://purl.org/dc/elements/1.1/" xmlns:cc="http://creativecommons.org/ns#" xmlns:rdf="http://www.w3.org/1999/02/22-rdf-syntax-ns#" xmlns:svg="http://www.w3.org/2000/svg" xmlns="http://www.w3.org/2000/svg" xmlns:sodipodi="http://sodipodi.sourceforge.net/DTD/sodipodi-0.dtd" xmlns:inkscape="http://www.inkscape.org/namespaces/inkscape" version="1.1" id="Layer_1" x="0px" y="0px" width="49.993999" height="39.34" viewBox="0 0 49.993999 39.34" enable-background="new 0 0 100 100" xml:space="preserve" inkscape:version="0.48.4 r9939" sodipodi:docname="Noun_project_2633.svg"><metadata id="metadata9"><rdf:RDF><cc:Work rdf:about=""><dc:format>image/svg+xml</dc:format><dc:type rdf:resource="http://purl.org/dc/dcmitype/StillImage"/><dc:title/></cc:Work></rdf:RDF></metadata><defs id="defs7"/><sodipodi:namedview pagecolor="#ffffff" bordercolor="#666666" borderopacity="1" objecttolerance="10" gridtolerance="10" guidetolerance="10" inkscape:pageopacity="0" inkscape:pageshadow="2" inkscape:window-width="1280" inkscape:window-height="972" id="namedview5" showgrid="false" inkscape:zoom="2.36" inkscape:cx="25.054" inkscape:cy="19.984" inkscape:window-x="-8" inkscape:window-y="-8" inkscape:window-maximized="1" inkscape:current-layer="Layer_1" fit-margin-top="3" fit-margin-left="3" fit-margin-right="3" fit-margin-bottom="3"/>
<path clip-rule="evenodd" d="m 34.997,34.997 c -0.832,0 -2.324,0 -4.081,0 0.024,-0.219 0.065,-0.432 0.065,-0.656 v -3.344 c 1.681,0 3.127,0 4.016,0 4.418,0 7.999,-3.582 7.999,-7.998 0,-4.418 -3.581,-8 -7.999,-8 -1.23,0 -2.389,0.289 -3.428,0.788 L 29.951,14.169 C 28.095,9.952 23.903,7 18.999,7 12.372,7 7.0009998,12.371 7.0009998,18.998 7.0009998,25.62 12.364,30.987 18.983,30.997 v 3.344 c 0,0.225 0.042,0.438 0.066,0.656 -0.016,0 -0.035,0 -0.051,0 C 10.162,34.997 2.9999998,27.835 2.9999998,18.998 2.9999998,10.163 10.162,3 18.998,3 c 6.004,0 11.229,3.312 13.965,8.204 0.664,-0.114 1.337,-0.205 2.033,-0.205 6.627,0 11.998,5.372 11.998,12 10e-4,6.625 -5.37,11.998 -11.997,11.998 z M 17.913,24.754 c -0.781,-0.779 -0.781,-2.047 0,-2.826 l 5.656,-5.657 c 0.78,-0.781 2.047,-0.781 2.828,0 l 5.655,5.657 c 0.781,0.779 0.781,2.047 0,2.826 -0.78,0.781 -2.047,0.781 -2.827,0 L 26.982,22.512 V 34.34 c 0,1.104 -0.896,2 -1.999,2 -1.105,0 -2,-0.896 -2,-2 V 22.512 l -2.242,2.242 c -0.781,0.782 -2.047,0.782 -2.828,0 z" id="path3" inkscape:connector-curvature="0" style="fill:#000000;fill-rule:evenodd"/>
</svg>